<?xml version="1.0" standalone="no"?>
<!DOCTYPE svg PUBLIC "-//W3C//DTD SVG 20010904//EN"
 "http://www.w3.org/TR/2001/REC-SVG-20010904/DTD/svg10.dtd">
<svg version="1.0" xmlns="http://www.w3.org/2000/svg"
 width="1000.000000pt" height="1000.000000pt" viewBox="0 0 1000.000000 1000.000000"
 preserveAspectRatio="xMidYMid meet">

<g transform="translate(0.000000,1000.000000) scale(0.100000,-0.100000)"
fill="#000000" stroke="none">
<path d="M0 5000 l0 -5000 1394 0 1393 0 7 159 c4 87 11 199 16 247 5 49 10
148 10 219 0 72 7 166 15 210 8 44 17 125 21 180 3 55 12 125 19 155 8 30 16
87 19 125 2 39 12 97 20 130 9 32 16 79 16 102 0 24 6 58 13 76 8 18 17 60 21
95 4 34 14 81 22 103 7 23 14 57 14 76 0 19 7 47 14 62 8 15 18 52 22 82 4 30
13 66 20 81 8 15 14 38 14 52 0 14 9 48 20 76 11 28 20 62 20 76 0 13 6 35 14
47 8 12 17 40 21 62 4 21 13 52 21 67 8 15 14 36 14 48 0 11 9 37 20 57 11 21
20 47 20 58 0 12 7 30 15 41 8 10 15 29 15 42 0 12 9 39 20 59 11 21 20 45 20
53 0 9 7 25 15 36 8 10 15 25 15 33 0 8 9 35 21 60 42 92 49 106 59 131 5 14
14 32 19 40 4 8 18 38 31 65 13 28 27 57 31 65 4 8 22 42 39 75 59 115 103
190 151 263 27 41 49 76 49 79 0 3 8 15 18 28 9 12 24 33 32 45 93 138 308
379 420 470 29 25 68 58 85 73 16 15 68 53 115 84 47 30 97 64 112 74 15 11
34 19 41 19 8 0 20 7 27 15 7 8 29 19 49 25 44 12 75 55 51 70 -8 6 -29 10
-45 10 -17 0 -47 9 -68 20 -20 11 -44 20 -52 20 -9 0 -47 15 -85 34 -37 19
-79 37 -92 41 -13 4 -42 20 -65 35 -22 16 -51 31 -62 35 -12 3 -21 10 -21 15
0 5 -10 12 -22 16 -13 4 -44 23 -69 43 -26 20 -57 43 -69 51 -87 58 -340 317
-340 348 0 6 6 23 14 39 19 37 36 105 46 178 7 54 19 99 51 190 6 17 15 51 20
77 6 26 16 60 24 75 8 15 15 41 15 56 0 15 6 40 14 55 7 15 16 47 20 72 4 24
11 50 17 56 6 7 16 34 22 61 7 26 17 47 22 46 18 -3 23 -45 24 -190 l1 -143
30 0 30 0 0 275 c0 269 0 275 22 295 29 26 54 25 62 -2 3 -13 6 -87 6 -165 0
-111 4 -151 17 -180 30 -69 51 -118 56 -135 12 -36 53 -49 179 -58 67 -5 159
-6 204 -3 73 5 86 9 111 33 38 38 53 57 53 70 0 5 10 20 23 33 21 21 22 29 22
192 0 94 4 176 8 183 14 21 25 14 37 -23 6 -19 15 -35 20 -35 5 0 14 -15 20
-34 6 -19 14 -36 18 -38 4 -2 21 -29 37 -60 17 -32 47 -88 67 -125 21 -38 44
-79 51 -93 44 -85 59 -101 90 -98 21 2 36 12 49 33 21 35 38 73 38 84 0 5 7
14 15 21 8 7 15 21 15 31 0 9 7 24 15 32 7 8 17 27 21 43 4 16 13 35 21 42 7
7 13 22 13 31 0 10 6 24 14 30 8 7 18 25 21 41 3 16 13 34 21 41 8 6 14 17 14
24 0 7 15 44 34 81 19 38 53 110 76 159 23 50 46 97 51 105 5 8 14 26 19 40 6
14 15 32 20 40 6 8 13 22 16 30 3 8 21 47 40 85 19 39 34 76 34 82 0 6 6 16
14 22 8 7 17 25 21 40 8 36 49 76 69 68 12 -5 16 -22 16 -70 0 -34 7 -90 16
-122 8 -33 18 -93 21 -132 7 -84 21 -76 -121 -73 -86 1 -96 -4 -96 -53 0 -22
6 -30 31 -39 27 -9 30 -14 25 -37 -13 -53 -26 -190 -32 -336 l-6 -150 32 -45
c17 -25 40 -59 52 -77 14 -24 29 -34 56 -38 20 -4 57 -13 81 -21 57 -18 115
-18 178 1 28 8 75 16 106 16 30 1 59 4 65 8 5 3 20 26 32 51 12 25 29 58 38
75 12 23 18 75 23 214 5 101 9 184 11 186 14 12 47 13 64 1 18 -14 19 -30 22
-289 3 -268 3 -275 23 -280 48 -13 49 -8 49 203 0 109 3 212 6 229 9 43 32 39
39 -6 3 -21 12 -51 20 -68 8 -16 19 -50 24 -75 9 -44 13 -57 46 -155 9 -27 20
-68 25 -90 4 -22 13 -53 19 -70 30 -85 44 -135 51 -185 4 -30 13 -73 19 -95 6
-22 11 -81 11 -131 0 -81 -3 -94 -22 -116 -13 -14 -32 -38 -43 -53 -55 -77
-173 -200 -270 -280 -32 -28 -67 -58 -77 -67 -15 -15 -57 -44 -123 -85 -11 -7
-35 -19 -52 -28 -18 -8 -33 -20 -33 -25 0 -6 -7 -10 -16 -10 -9 0 -27 -9 -41
-20 -14 -11 -34 -20 -43 -20 -10 0 -23 -7 -30 -15 -7 -8 -19 -15 -26 -15 -8 0
-31 -9 -51 -20 -21 -11 -46 -20 -56 -20 -26 0 -109 -50 -104 -64 2 -6 17 -15
33 -20 16 -4 36 -12 44 -17 8 -5 22 -12 30 -15 47 -18 157 -79 181 -100 8 -8
18 -14 22 -14 11 0 121 -80 202 -148 100 -84 199 -184 295 -298 41 -49 81 -93
87 -97 7 -4 13 -13 13 -18 0 -11 51 -82 63 -87 4 -2 7 -9 7 -16 0 -7 9 -21 20
-31 11 -10 20 -22 20 -27 0 -4 15 -30 33 -56 18 -26 36 -54 40 -62 4 -8 16
-28 27 -45 11 -16 29 -48 40 -70 11 -22 38 -71 60 -110 22 -38 42 -77 45 -85
10 -23 47 -103 57 -120 4 -8 11 -22 14 -30 6 -17 39 -90 60 -133 8 -16 14 -33
14 -39 0 -6 9 -29 19 -52 36 -77 61 -145 61 -164 0 -11 7 -25 15 -32 8 -7 15
-23 15 -36 0 -13 9 -41 20 -61 11 -21 20 -49 20 -63 0 -14 6 -34 14 -45 7 -11
16 -39 19 -61 4 -23 14 -54 22 -70 8 -16 15 -40 15 -54 0 -14 6 -37 14 -51 7
-14 17 -48 21 -75 4 -27 13 -61 21 -76 8 -15 14 -41 14 -58 0 -17 7 -47 15
-66 8 -19 17 -59 21 -87 4 -29 13 -67 20 -86 8 -18 14 -50 14 -71 0 -21 9 -67
20 -102 11 -34 20 -84 20 -109 0 -26 6 -64 14 -85 7 -22 16 -75 20 -119 4 -44
13 -105 20 -135 8 -30 16 -102 20 -160 3 -58 10 -121 16 -140 6 -19 15 -145
20 -280 9 -246 15 -294 31 -284 5 3 9 -65 9 -155 l0 -161 1150 0 1150 0 0
5000 0 5000 -5000 0 -5000 0 0 -5000z m5188 3955 c31 -8 72 -15 92 -15 19 0
53 -5 75 -11 22 -5 78 -16 125 -24 180 -29 227 -37 290 -50 36 -8 100 -19 144
-25 43 -5 82 -13 87 -15 5 -3 48 -10 96 -16 48 -5 113 -16 144 -24 31 -8 72
-15 91 -15 76 0 176 -47 178 -83 0 -6 50 -94 140 -247 44 -75 114 -198 121
-215 5 -11 18 -33 29 -50 11 -16 27 -43 35 -60 9 -16 27 -48 40 -70 13 -22 29
-51 35 -65 6 -13 14 -27 18 -30 4 -3 13 -16 20 -30 41 -79 123 -220 133 -226
5 -3 9 -12 9 -21 0 -9 6 -24 14 -32 13 -15 62 -98 88 -151 7 -14 28 -47 46
-75 17 -27 32 -55 32 -61 0 -6 7 -17 15 -24 19 -16 20 -98 0 -289 -13 -137
-20 -228 -45 -591 -6 -80 -17 -221 -25 -315 -18 -208 -33 -400 -46 -605 -5
-85 -17 -220 -25 -300 -8 -80 -14 -165 -14 -190 0 -25 -4 -50 -8 -56 -12 -19
-233 -165 -241 -160 -4 3 -11 171 -14 373 l-7 368 -31 105 c-16 58 -35 119
-41 135 -5 17 -16 53 -24 80 -31 116 -44 161 -51 175 -9 21 -42 137 -53 189
-6 24 -14 49 -20 55 -5 7 -12 32 -16 56 -4 25 -12 54 -18 65 -6 11 -16 40 -23
65 -7 25 -20 73 -29 108 -10 36 -28 75 -43 91 -23 25 -36 29 -111 35 -47 4
-112 14 -145 22 -33 7 -78 14 -99 14 -22 0 -69 5 -104 11 -93 16 -107 33 -115
139 -3 47 -11 99 -16 115 -6 17 -15 73 -21 125 -17 154 -32 211 -64 234 -56
42 -73 17 -256 -369 -21 -44 -68 -143 -105 -220 -150 -313 -183 -381 -189
-395 -3 -8 -10 -22 -15 -30 -6 -8 -38 -73 -72 -145 -34 -71 -63 -132 -65 -134
-2 -2 -14 8 -26 24 -20 26 -34 50 -118 210 -18 33 -38 67 -46 76 -8 8 -14 22
-14 30 0 8 -5 20 -11 26 -10 10 -21 29 -74 131 -16 31 -33 59 -36 62 -4 3 -14
21 -23 40 -23 49 -48 94 -55 100 -3 3 -18 28 -32 55 -45 88 -63 114 -86 124
-28 13 -38 10 -164 -48 -25 -12 -51 -21 -57 -21 -6 0 -23 -6 -39 -14 -15 -7
-44 -20 -63 -29 -19 -8 -56 -25 -81 -36 -25 -12 -49 -21 -54 -21 -4 0 -27 -9
-51 -20 -24 -11 -64 -29 -89 -41 -35 -16 -50 -30 -65 -64 -11 -24 -20 -52 -20
-62 -1 -10 -8 -36 -16 -58 -8 -22 -18 -58 -23 -80 -5 -22 -14 -53 -20 -70 -5
-16 -19 -63 -31 -102 -11 -40 -29 -106 -41 -145 -11 -40 -26 -95 -34 -123 -8
-27 -22 -75 -31 -105 -9 -30 -20 -71 -24 -90 -5 -19 -13 -48 -19 -65 -5 -16
-20 -64 -31 -105 -45 -160 -61 -216 -71 -245 -6 -16 -15 -49 -20 -73 -5 -24
-16 -64 -24 -89 -16 -47 -10 -99 36 -333 21 -105 22 -120 7 -120 -8 0 -52 39
-98 88 -46 48 -171 176 -277 285 l-195 198 11 189 c6 104 15 228 21 277 5 48
14 165 20 258 5 94 14 226 19 295 12 156 31 603 31 731 0 108 -15 157 -54 182
-20 13 -31 14 -56 6 -17 -7 -50 -9 -73 -5 -23 3 -78 11 -122 16 -44 6 -102 18
-129 25 -27 8 -60 15 -72 15 -13 0 -34 4 -49 10 -23 9 -24 12 -13 32 7 12 24
31 38 43 14 11 32 27 40 35 9 8 49 44 90 80 41 36 122 108 180 160 58 53 138
125 179 160 82 71 85 74 158 142 28 26 90 82 139 124 89 77 214 188 284 254
165 154 208 181 340 221 19 6 40 15 45 19 6 4 26 11 45 15 19 4 41 12 48 18 7
5 29 13 50 18 20 4 69 19 107 34 39 15 84 30 100 35 17 5 62 21 100 35 39 15
86 31 105 36 19 6 49 17 67 25 17 8 39 14 50 14 10 0 27 6 38 14 11 7 36 17
55 21 19 4 45 13 57 21 12 8 30 14 40 14 10 0 36 9 58 20 45 22 124 20 223 -5z
m-607 -2162 c6 -15 14 -30 18 -33 14 -10 52 -93 47 -105 -3 -8 -35 -14 -89
-17 -47 -2 -92 -10 -100 -16 -8 -7 -34 -16 -58 -21 -42 -9 -107 -29 -174 -52
-16 -6 -46 -14 -65 -18 -19 -4 -45 -13 -57 -19 -29 -16 -62 -15 -69 1 -10 26
34 103 68 119 77 37 126 58 133 58 5 0 29 9 54 21 25 11 61 27 79 35 17 8 47
21 65 29 17 8 44 17 60 21 15 3 30 10 33 15 12 19 45 8 55 -18z m1532 -170
c-7 -2 -21 -2 -30 0 -10 3 -4 5 12 5 17 0 24 -2 18 -5z m252 -28 c29 -9 59
-22 65 -30 16 -19 8 -61 -10 -56 -8 2 -41 10 -73 17 -32 7 -63 17 -70 22 -7 6
-33 13 -60 17 -48 7 -63 17 -52 35 10 15 141 12 200 -5z"/>
</g>
</svg>
